{
    "asset" : {
        "generator" : "Khronos glTF Blender I/O v3.2.40",
        "version" : "2.0"
    },
    "scene" : 0,
    "scenes" : [
        {
            "name" : "Scene",
            "nodes" : [
                0
            ]
        }
    ],
    "nodes" : [
        {
            "mesh" : 0,
            "name" : "ICO\u7403",
            "translation" : [
                -0.8676159977912903,
                0,
                0
            ]
        }
    ],
    "materials" : [
        {
            "doubleSided" : true,
            "name" : "Cloud",
            "pbrMetallicRoughness" : {
                "baseColorFactor" : [
                    0.800000011920929,
                    0.800000011920929,
                    0.800000011920929,
                    1
                ],
                "metallicFactor" : 0,
                "roughnessFactor" : 0.5
            }
        }
    ],
    "meshes" : [
        {
            "name" : "ICO\u7403",
            "primitives" : [
                {
                    "attributes" : {
                        "POSITION" : 0,
                        "NORMAL" : 1,
                        "TEXCOORD_0" : 2
                    },
                    "indices" : 3,
                    "material" : 0
                }
            ]
        }
    ],
    "accessors" : [
        {
            "bufferView" : 0,
            "componentType" : 5126,
            "count" : 5886,
            "max" : [
                2.824528932571411,
                1.0342934131622314,
                1.1670067310333252
            ],
            "min" : [
                -1.055859088897705,
                -1.1756352186203003,
                -1.1708142757415771
            ],
            "type" : "VEC3"
        },
        {
            "bufferView" : 1,
            "componentType" : 5126,
            "count" : 5886,
            "type" : "VEC3"
        },
        {
            "bufferView" : 2,
            "componentType" : 5126,
            "count" : 5886,
            "type" : "VEC2"
        },
        {
            "bufferView" : 3,
            "componentType" : 5123,
            "count" : 29184,
            "type" : "SCALAR"
        }
    ],
    "bufferViews" : [
        {
            "buffer" : 0,
            "byteLength" : 70632,
            "byteOffset" : 0
        },
        {
            "buffer" : 0,
            "byteLength" : 70632,
            "byteOffset" : 70632
        },
        {
            "buffer" : 0,
            "byteLength" : 47088,
            "byteOffset" : 141264
        },
        {
            "buffer" : 0,
            "byteLength" : 58368,
            "byteOffset" : 188352
        }
    ],
    "buffers" : [
        {
            "byteLength" : 246720,
            "uri" : "data:application/octet-stream;base64,"
        }
    ]
}
