{
    "asset" : {
        "generator" : "Khronos glTF Blender I/O v3.2.40",
        "version" : "2.0"
    },
    "scene" : 0,
    "scenes" : [
        {
            "name" : "Scene",
            "nodes" : [
                0,
                1
            ]
        }
    ],
    "nodes" : [
        {
            "mesh" : 0,
            "name" : "Plane",
            "rotation" : [
                0,
                -0.7071068286895752,
                0,
                0.7071068286895752
            ],
            "scale" : [
                0.5056959390640259,
                0.5056959390640259,
                0.5056959390640259
            ],
            "translation" : [
                -0.0646437406539917,
                -1.2792717218399048,
                -0.4311825633049011
            ]
        },
        {
            "mesh" : 1,
            "name" : "Plane.001",
            "rotation" : [
                0,
                -0.7071068286895752,
                0,
                0.7071068286895752
            ],
            "scale" : [
                0.5056959390640259,
                0.5056959390640259,
                0.5056959390640259
            ],
            "translation" : [
                -0.06464388221502304,
                0.2399740219116211,
                0.11426103115081787
            ]
        }
    ],
    "materials" : [
        {
            "doubleSided" : true,
            "name" : "metal",
            "pbrMetallicRoughness" : {
                "baseColorFactor" : [
                    0.800000011920929,
                    0.800000011920929,
                    0.800000011920929,
                    1
                ],
                "roughnessFactor" : 0.5
            }
        },
        {
            "doubleSided" : true,
            "emissiveFactor" : [
                1,
                1,
                1
            ],
            "emissiveTexture" : {
                "index" : 0
            },
            "name" : "screen",
            "pbrMetallicRoughness" : {
                "baseColorTexture" : {
                    "index" : 1
                },
                "metallicFactor" : 0,
                "roughnessFactor" : 0.20000000298023224
            }
        }
    ],
    "meshes" : [
        {
            "name" : "Plane.004",
            "primitives" : [
                {
                    "attributes" : {
                        "POSITION" : 0,
                        "NORMAL" : 1,
                        "TEXCOORD_0" : 2
                    },
                    "indices" : 3,
                    "material" : 0
                }
            ]
        },
        {
            "name" : "Plane.005",
            "primitives" : [
                {
                    "attributes" : {
                        "POSITION" : 4,
                        "NORMAL" : 5,
                        "TEXCOORD_0" : 6
                    },
                    "indices" : 7,
                    "material" : 0
                },
                {
                    "attributes" : {
                        "POSITION" : 8,
                        "NORMAL" : 9,
                        "TEXCOORD_0" : 10
                    },
                    "indices" : 11,
                    "material" : 1
                }
            ]
        }
    ],
    "textures" : [
        {
            "sampler" : 0,
            "source" : 0
        },
        {
            "sampler" : 0,
            "source" : 0
        }
    ],
    "images" : [
        {
            "bufferView" : 12,
            "mimeType" : "image/jpeg",
            "name" : "23700864_s"
        }
    ],
    "accessors" : [
        {
            "bufferView" : 0,
            "componentType" : 5126,
            "count" : 3311,
            "max" : [
                2.281416177749634,
                2.9922845363616943,
                1.485793948173523
            ],
            "min" : [
                -0.4783666729927063,
                0.00044828173122368753,
                -1.485793948173523
            ],
            "type" : "VEC3"
        },
        {
            "bufferView" : 1,
            "componentType" : 5126,
            "count" : 3311,
            "type" : "VEC3"
        },
        {
            "bufferView" : 2,
            "componentType" : 5126,
            "count" : 3311,
            "type" : "VEC2"
        },
        {
            "bufferView" : 3,
            "componentType" : 5123,
            "count" : 17472,
            "type" : "SCALAR"
        },
        {
            "bufferView" : 4,
            "componentType" : 5126,
            "count" : 4581,
            "max" : [
                0.6901528835296631,
                2.008796215057373,
                3.524517297744751
            ],
            "min" : [
                0.00027843695716001093,
                -2.008796215057373,
                -3.524517297744751
            ],
            "type" : "VEC3"
        },
        {
            "bufferView" : 5,
            "componentType" : 5126,
            "count" : 4581,
            "type" : "VEC3"
        },
        {
            "bufferView" : 6,
            "componentType" : 5126,
            "count" : 4581,
            "type" : "VEC2"
        },
        {
            "bufferView" : 7,
            "componentType" : 5123,
            "count" : 24000,
            "type" : "SCALAR"
        },
        {
            "bufferView" : 8,
            "componentType" : 5126,
            "count" : 861,
            "max" : [
                0.6737111806869507,
                1.9283056259155273,
                3.4450430870056152
            ],
            "min" : [
                0.18182970583438873,
                -1.928305745124817,
                -3.4450430870056152
            ],
            "type" : "VEC3"
        },
        {
            "bufferView" : 9,
            "componentType" : 5126,
            "count" : 861,
            "type" : "VEC3"
        },
        {
            "bufferView" : 10,
            "componentType" : 5126,
            "count" : 861,
            "type" : "VEC2"
        },
        {
            "bufferView" : 11,
            "componentType" : 5123,
            "count" : 4032,
            "type" : "SCALAR"
        }
    ],
    "bufferViews" : [
        {
            "buffer" : 0,
            "byteLength" : 39732,
            "byteOffset" : 0
        },
        {
            "buffer" : 0,
            "byteLength" : 39732,
            "byteOffset" : 39732
        },
        {
            "buffer" : 0,
            "byteLength" : 26488,
            "byteOffset" : 79464
        },
        {
            "buffer" : 0,
            "byteLength" : 34944,
            "byteOffset" : 105952
        },
        {
            "buffer" : 0,
            "byteLength" : 54972,
            "byteOffset" : 140896
        },
        {
            "buffer" : 0,
            "byteLength" : 54972,
            "byteOffset" : 195868
        },
        {
            "buffer" : 0,
            "byteLength" : 36648,
            "byteOffset" : 250840
        },
        {
            "buffer" : 0,
            "byteLength" : 48000,
            "byteOffset" : 287488
        },
        {
            "buffer" : 0,
            "byteLength" : 10332,
            "byteOffset" : 335488
        },
        {
            "buffer" : 0,
            "byteLength" : 10332,
            "byteOffset" : 345820
        },
        {
            "buffer" : 0,
            "byteLength" : 6888,
            "byteOffset" : 356152
        },
        {
            "buffer" : 0,
            "byteLength" : 8064,
            "byteOffset" : 363040
        },
        {
            "buffer" : 0,
            "byteLength" : 174875,
            "byteOffset" : 371104
        }
    ],
    "samplers" : [
        {
            "magFilter" : 9729,
            "minFilter" : 9987
        }
    ],
    "buffers" : [
        {
            "byteLength" : 545980,
            "uri" : "data:application/octet-stream;base64,"
        }
    ]
}
