{
    "asset" : {
        "generator" : "Khronos glTF Blender I/O v3.2.40",
        "version" : "2.0"
    },
    "scene" : 0,
    "scenes" : [
        {
            "name" : "Scene",
            "nodes" : [
                0,
                1,
                2,
                3,
                4,
                5,
                6,
                7
            ]
        }
    ],
    "nodes" : [
        {
            "mesh" : 0,
            "name" : "Cube",
            "translation" : [
                0,
                0.2126661241054535,
                0
            ]
        },
        {
            "mesh" : 1,
            "name" : "Cube.001",
            "scale" : [
                1.2374114990234375,
                1.2374114990234375,
                1.2374114990234375
            ],
            "translation" : [
                0,
                -0.09705227613449097,
                0
            ]
        },
        {
            "mesh" : 2,
            "name" : "Cube.002",
            "translation" : [
                0,
                0.2126661241054535,
                0
            ]
        },
        {
            "mesh" : 3,
            "name" : "\u7acb\u65b9\u4f53",
            "rotation" : [
                0,
                1,
                0,
                0
            ],
            "scale" : [
                -0.22846823930740356,
                -0.6027748584747314,
                -0.22846823930740356
            ],
            "translation" : [
                0.7368793487548828,
                1.5352275371551514,
                0
            ]
        },
        {
            "mesh" : 4,
            "name" : "\u5186",
            "scale" : [
                2.5013058185577393,
                2.5013058185577393,
                2.5013058185577393
            ],
            "translation" : [
                0,
                -0.7874081134796143,
                0
            ]
        },
        {
            "mesh" : 5,
            "name" : "\u7acb\u65b9\u4f53.001",
            "scale" : [
                0.3793643116950989,
                0.15374302864074707,
                0.15374302864074707
            ],
            "translation" : [
                0,
                -0.7130188941955566,
                1.1555805206298828
            ]
        },
        {
            "mesh" : 6,
            "name" : "\u7acb\u65b9\u4f53.002",
            "scale" : [
                0.3793643116950989,
                0.15374302864074707,
                0.15374302864074707
            ],
            "translation" : [
                0,
                -0.8273131847381592,
                1.460025429725647
            ]
        },
        {
            "name" : "\u5e73\u9762",
            "scale" : [
                100,
                100,
                100
            ],
            "translation" : [
                0,
                -1.1211223602294922,
                -0.019000621512532234
            ]
        }
    ],
    "materials" : [
        {
            "doubleSided" : true,
            "name" : "\u30de\u30c6\u30ea\u30a2\u30eb.002",
            "pbrMetallicRoughness" : {
                "baseColorFactor" : [
                    0.5027265548706055,
                    0.8000000715255737,
                    0.8000000715255737,
                    1
                ],
                "metallicFactor" : 0,
                "roughnessFactor" : 0.5
            }
        },
        {
            "doubleSided" : true,
            "name" : "\u30de\u30c6\u30ea\u30a2\u30eb.003",
            "pbrMetallicRoughness" : {
                "baseColorFactor" : [
                    0.8000000715255737,
                    0.18356242775917053,
                    0.1000458225607872,
                    1
                ],
                "metallicFactor" : 0,
                "roughnessFactor" : 0.5
            }
        },
        {
            "doubleSided" : true,
            "name" : "\u30de\u30c6\u30ea\u30a2\u30eb.001",
            "pbrMetallicRoughness" : {
                "baseColorFactor" : [
                    0.1721663475036621,
                    0.08638215810060501,
                    0.8000000715255737,
                    1
                ],
                "metallicFactor" : 0,
                "roughnessFactor" : 0.5
            }
        },
        {
            "doubleSided" : true,
            "name" : "Material",
            "pbrMetallicRoughness" : {
                "baseColorFactor" : [
                    0.800000011920929,
                    0.800000011920929,
                    0.800000011920929,
                    1
                ],
                "metallicFactor" : 0,
                "roughnessFactor" : 0.4000000059604645
            }
        },
        {
            "doubleSided" : true,
            "name" : "\u30de\u30c6\u30ea\u30a2\u30eb",
            "pbrMetallicRoughness" : {
                "baseColorFactor" : [
                    0.07356726378202438,
                    0.8000000715255737,
                    0.3393848240375519,
                    1
                ],
                "metallicFactor" : 0,
                "roughnessFactor" : 0.5
            }
        }
    ],
    "meshes" : [
        {
            "name" : "Cube",
            "primitives" : [
                {
                    "attributes" : {
                        "POSITION" : 0,
                        "NORMAL" : 1,
                        "TEXCOORD_0" : 2
                    },
                    "indices" : 3,
                    "material" : 0
                },
                {
                    "attributes" : {
                        "POSITION" : 4,
                        "NORMAL" : 5,
                        "TEXCOORD_0" : 6
                    },
                    "indices" : 7,
                    "material" : 1
                }
            ]
        },
        {
            "name" : "Cube.001",
            "primitives" : [
                {
                    "attributes" : {
                        "POSITION" : 8,
                        "NORMAL" : 9,
                        "TEXCOORD_0" : 10
                    },
                    "indices" : 11,
                    "material" : 2
                }
            ]
        },
        {
            "name" : "Cube.002",
            "primitives" : [
                {
                    "attributes" : {
                        "POSITION" : 12,
                        "NORMAL" : 13,
                        "TEXCOORD_0" : 14
                    },
                    "indices" : 15,
                    "material" : 3
                }
            ]
        },
        {
            "name" : "\u7acb\u65b9\u4f53",
            "primitives" : [
                {
                    "attributes" : {
                        "POSITION" : 16,
                        "NORMAL" : 17,
                        "TEXCOORD_0" : 18
                    },
                    "indices" : 19,
                    "material" : 2
                }
            ]
        },
        {
            "name" : "\u5186",
            "primitives" : [
                {
                    "attributes" : {
                        "POSITION" : 20,
                        "NORMAL" : 21,
                        "TEXCOORD_0" : 22
                    },
                    "indices" : 23,
                    "material" : 4
                }
            ]
        },
        {
            "name" : "\u7acb\u65b9\u4f53.001",
            "primitives" : [
                {
                    "attributes" : {
                        "POSITION" : 24,
                        "NORMAL" : 25,
                        "TEXCOORD_0" : 26
                    },
                    "indices" : 27
                }
            ]
        },
        {
            "name" : "\u7acb\u65b9\u4f53.002",
            "primitives" : [
                {
                    "attributes" : {
                        "POSITION" : 28,
                        "NORMAL" : 29,
                        "TEXCOORD_0" : 30
                    },
                    "indices" : 27
                }
            ]
        }
    ],
    "accessors" : [
        {
            "bufferView" : 0,
            "componentType" : 5126,
            "count" : 96,
            "max" : [
                1,
                1.2599836587905884,
                1
            ],
            "min" : [
                -1,
                -1,
                -1
            ],
            "type" : "VEC3"
        },
        {
            "bufferView" : 1,
            "componentType" : 5126,
            "count" : 96,
            "type" : "VEC3"
        },
        {
            "bufferView" : 2,
            "componentType" : 5126,
            "count" : 96,
            "type" : "VEC2"
        },
        {
            "bufferView" : 3,
            "componentType" : 5123,
            "count" : 174,
            "type" : "SCALAR"
        },
        {
            "bufferView" : 4,
            "componentType" : 5126,
            "count" : 6,
            "max" : [
                0.32998132705688477,
                0.38474640250205994,
                0.7047942876815796
            ],
            "min" : [
                -0.32998132705688477,
                -0.7723616361618042,
                0.7047942876815796
            ],
            "type" : "VEC3"
        },
        {
            "bufferView" : 5,
            "componentType" : 5126,
            "count" : 6,
            "type" : "VEC3"
        },
        {
            "bufferView" : 6,
            "componentType" : 5126,
            "count" : 6,
            "type" : "VEC2"
        },
        {
            "bufferView" : 7,
            "componentType" : 5123,
            "count" : 12,
            "type" : "SCALAR"
        },
        {
            "bufferView" : 8,
            "componentType" : 5126,
            "count" : 36,
            "max" : [
                1,
                1.543989896774292,
                1
            ],
            "min" : [
                -1,
                0.7575746774673462,
                -1
            ],
            "type" : "VEC3"
        },
        {
            "bufferView" : 9,
            "componentType" : 5126,
            "count" : 36,
            "type" : "VEC3"
        },
        {
            "bufferView" : 10,
            "componentType" : 5126,
            "count" : 36,
            "type" : "VEC2"
        },
        {
            "bufferView" : 11,
            "componentType" : 5123,
            "count" : 60,
            "type" : "SCALAR"
        },
        {
            "bufferView" : 12,
            "componentType" : 5126,
            "count" : 355,
            "max" : [
                1.0520200729370117,
                0.3706309199333191,
                0.6130562424659729
            ],
            "min" : [
                1,
                -0.6130562424659729,
                -0.6130562424659729
            ],
            "type" : "VEC3"
        },
        {
            "bufferView" : 13,
            "componentType" : 5126,
            "count" : 355,
            "type" : "VEC3"
        },
        {
            "bufferView" : 14,
            "componentType" : 5126,
            "count" : 355,
            "type" : "VEC2"
        },
        {
            "bufferView" : 15,
            "componentType" : 5123,
            "count" : 1080,
            "type" : "SCALAR"
        },
        {
            "bufferView" : 16,
            "componentType" : 5126,
            "count" : 56,
            "max" : [
                1,
                1,
                1
            ],
            "min" : [
                -1,
                -1,
                -1
            ],
            "type" : "VEC3"
        },
        {
            "bufferView" : 17,
            "componentType" : 5126,
            "count" : 56,
            "type" : "VEC3"
        },
        {
            "bufferView" : 18,
            "componentType" : 5126,
            "count" : 56,
            "type" : "VEC2"
        },
        {
            "bufferView" : 19,
            "componentType" : 5123,
            "count" : 84,
            "type" : "SCALAR"
        },
        {
            "bufferView" : 20,
            "componentType" : 5126,
            "count" : 192,
            "max" : [
                1,
                0,
                1
            ],
            "min" : [
                -1,
                -0.13293790817260742,
                -1
            ],
            "type" : "VEC3"
        },
        {
            "bufferView" : 21,
            "componentType" : 5126,
            "count" : 192,
            "type" : "VEC3"
        },
        {
            "bufferView" : 22,
            "componentType" : 5126,
            "count" : 192,
            "type" : "VEC2"
        },
        {
            "bufferView" : 23,
            "componentType" : 5123,
            "count" : 372,
            "type" : "SCALAR"
        },
        {
            "bufferView" : 24,
            "componentType" : 5126,
            "count" : 24,
            "max" : [
                1,
                1.0000004768371582,
                1
            ],
            "min" : [
                -1,
                -1,
                -2.9283809661865234
            ],
            "type" : "VEC3"
        },
        {
            "bufferView" : 25,
            "componentType" : 5126,
            "count" : 24,
            "type" : "VEC3"
        },
        {
            "bufferView" : 26,
            "componentType" : 5126,
            "count" : 24,
            "type" : "VEC2"
        },
        {
            "bufferView" : 27,
            "componentType" : 5123,
            "count" : 36,
            "type" : "SCALAR"
        },
        {
            "bufferView" : 28,
            "componentType" : 5126,
            "count" : 24,
            "max" : [
                1,
                1,
                1
            ],
            "min" : [
                -1,
                -1,
                -1
            ],
            "type" : "VEC3"
        },
        {
            "bufferView" : 29,
            "componentType" : 5126,
            "count" : 24,
            "type" : "VEC3"
        },
        {
            "bufferView" : 30,
            "componentType" : 5126,
            "count" : 24,
            "type" : "VEC2"
        }
    ],
    "bufferViews" : [
        {
            "buffer" : 0,
            "byteLength" : 1152,
            "byteOffset" : 0
        },
        {
            "buffer" : 0,
            "byteLength" : 1152,
            "byteOffset" : 1152
        },
        {
            "buffer" : 0,
            "byteLength" : 768,
            "byteOffset" : 2304
        },
        {
            "buffer" : 0,
            "byteLength" : 348,
            "byteOffset" : 3072
        },
        {
            "buffer" : 0,
            "byteLength" : 72,
            "byteOffset" : 3420
        },
        {
            "buffer" : 0,
            "byteLength" : 72,
            "byteOffset" : 3492
        },
        {
            "buffer" : 0,
            "byteLength" : 48,
            "byteOffset" : 3564
        },
        {
            "buffer" : 0,
            "byteLength" : 24,
            "byteOffset" : 3612
        },
        {
            "buffer" : 0,
            "byteLength" : 432,
            "byteOffset" : 3636
        },
        {
            "buffer" : 0,
            "byteLength" : 432,
            "byteOffset" : 4068
        },
        {
            "buffer" : 0,
            "byteLength" : 288,
            "byteOffset" : 4500
        },
        {
            "buffer" : 0,
            "byteLength" : 120,
            "byteOffset" : 4788
        },
        {
            "buffer" : 0,
            "byteLength" : 4260,
            "byteOffset" : 4908
        },
        {
            "buffer" : 0,
            "byteLength" : 4260,
            "byteOffset" : 9168
        },
        {
            "buffer" : 0,
            "byteLength" : 2840,
            "byteOffset" : 13428
        },
        {
            "buffer" : 0,
            "byteLength" : 2160,
            "byteOffset" : 16268
        },
        {
            "buffer" : 0,
            "byteLength" : 672,
            "byteOffset" : 18428
        },
        {
            "buffer" : 0,
            "byteLength" : 672,
            "byteOffset" : 19100
        },
        {
            "buffer" : 0,
            "byteLength" : 448,
            "byteOffset" : 19772
        },
        {
            "buffer" : 0,
            "byteLength" : 168,
            "byteOffset" : 20220
        },
        {
            "buffer" : 0,
            "byteLength" : 2304,
            "byteOffset" : 20388
        },
        {
            "buffer" : 0,
            "byteLength" : 2304,
            "byteOffset" : 22692
        },
        {
            "buffer" : 0,
            "byteLength" : 1536,
            "byteOffset" : 24996
        },
        {
            "buffer" : 0,
            "byteLength" : 744,
            "byteOffset" : 26532
        },
        {
            "buffer" : 0,
            "byteLength" : 288,
            "byteOffset" : 27276
        },
        {
            "buffer" : 0,
            "byteLength" : 288,
            "byteOffset" : 27564
        },
        {
            "buffer" : 0,
            "byteLength" : 192,
            "byteOffset" : 27852
        },
        {
            "buffer" : 0,
            "byteLength" : 72,
            "byteOffset" : 28044
        },
        {
            "buffer" : 0,
            "byteLength" : 288,
            "byteOffset" : 28116
        },
        {
            "buffer" : 0,
            "byteLength" : 288,
            "byteOffset" : 28404
        },
        {
            "buffer" : 0,
            "byteLength" : 192,
            "byteOffset" : 28692
        }
    ],
    "buffers" : [
        {
            "byteLength" : 28884,
            "uri" : "data:application/octet-stream;base64,"
        }
    ]
}
