{
    "asset" : {
        "generator" : "Khronos glTF Blender I/O v3.2.40",
        "version" : "2.0"
    },
    "scene" : 0,
    "scenes" : [
        {
            "name" : "Scene",
            "nodes" : [
                0,
                1,
                2,
                3,
                4
            ]
        }
    ],
    "nodes" : [
        {
            "mesh" : 0,
            "name" : "Cube",
            "translation" : [
                0,
                -0.800000011920929,
                0.4000000059604645
            ]
        },
        {
            "mesh" : 1,
            "name" : "Cube.001",
            "rotation" : [
                0.5173341631889343,
                0,
                0,
                0.8557834625244141
            ],
            "translation" : [
                0,
                0.008978664875030518,
                -0.8153668642044067
            ]
        },
        {
            "mesh" : 2,
            "name" : "\u7acb\u65b9\u4f53",
            "scale" : [
                0.06831711530685425,
                0.03332388401031494,
                0.06831711530685425
            ],
            "translation" : [
                -0.8883901834487915,
                -0.7601796984672546,
                -0.11807242035865784
            ]
        },
        {
            "mesh" : 3,
            "name" : "\u30c6\u30ad\u30b9\u30c8",
            "rotation" : [
                0.5141660571098328,
                0,
                0,
                0.857690691947937
            ],
            "scale" : [
                0.05649682879447937,
                0.05649682506918907,
                0.05649682506918907
            ],
            "translation" : [
                -0.16993238031864166,
                -0.7037227749824524,
                -0.40308085083961487
            ]
        },
        {
            "name" : "\u5e73\u9762",
            "scale" : [
                9.465434074401855,
                9.465434074401855,
                9.465434074401855
            ],
            "translation" : [
                0,
                -0.8484207987785339,
                0.4000000059604645
            ]
        }
    ],
    "materials" : [
        {
            "doubleSided" : true,
            "name" : "Material",
            "pbrMetallicRoughness" : {
                "baseColorFactor" : [
                    0.8330000042915344,
                    0.8330000042915344,
                    0.8330000042915344,
                    1
                ],
                "metallicFactor" : 0.800000011920929,
                "roughnessFactor" : 0.30000001192092896
            }
        },
        {
            "doubleSided" : true,
            "emissiveFactor" : [
                0.346455454826355,
                1,
                1
            ],
            "name" : "\u30de\u30c6\u30ea\u30a2\u30eb.001",
            "pbrMetallicRoughness" : {
                "baseColorFactor" : [
                    0,
                    0,
                    0,
                    1
                ]
            }
        },
        {
            "doubleSided" : true,
            "name" : "\u30de\u30c6\u30ea\u30a2\u30eb.002",
            "pbrMetallicRoughness" : {
                "baseColorFactor" : [
                    0.027209725230932236,
                    0.027209725230932236,
                    0.027209725230932236,
                    1
                ],
                "metallicFactor" : 0.800000011920929,
                "roughnessFactor" : 0.30000001192092896
            }
        },
        {
            "doubleSided" : true,
            "name" : "\u30de\u30c6\u30ea\u30a2\u30eb",
            "pbrMetallicRoughness" : {
                "baseColorFactor" : [
                    0.025393841788172722,
                    0.025393841788172722,
                    0.025393841788172722,
                    1
                ],
                "metallicFactor" : 0,
                "roughnessFactor" : 0.5
            }
        }
    ],
    "meshes" : [
        {
            "name" : "Cube",
            "primitives" : [
                {
                    "attributes" : {
                        "POSITION" : 0,
                        "NORMAL" : 1,
                        "TEXCOORD_0" : 2
                    },
                    "indices" : 3,
                    "material" : 0
                }
            ]
        },
        {
            "name" : "Cube.001",
            "primitives" : [
                {
                    "attributes" : {
                        "POSITION" : 4,
                        "NORMAL" : 5,
                        "TEXCOORD_0" : 6
                    },
                    "indices" : 7,
                    "material" : 0
                },
                {
                    "attributes" : {
                        "POSITION" : 8,
                        "NORMAL" : 9,
                        "TEXCOORD_0" : 10
                    },
                    "indices" : 11,
                    "material" : 1
                },
                {
                    "attributes" : {
                        "POSITION" : 12,
                        "NORMAL" : 13,
                        "TEXCOORD_0" : 14
                    },
                    "indices" : 15,
                    "material" : 2
                }
            ]
        },
        {
            "name" : "\u7acb\u65b9\u4f53",
            "primitives" : [
                {
                    "attributes" : {
                        "POSITION" : 16,
                        "NORMAL" : 17,
                        "TEXCOORD_0" : 18
                    },
                    "indices" : 19,
                    "material" : 3
                }
            ]
        },
        {
            "name" : "\u30c6\u30ad\u30b9\u30c8",
            "primitives" : [
                {
                    "attributes" : {
                        "POSITION" : 20,
                        "NORMAL" : 21,
                        "TEXCOORD_0" : 22
                    },
                    "indices" : 23
                }
            ]
        }
    ],
    "accessors" : [
        {
            "bufferView" : 0,
            "componentType" : 5126,
            "count" : 158,
            "max" : [
                1.209768295288086,
                0.03615522384643555,
                0.8682205677032471
            ],
            "min" : [
                -1.209768295288086,
                -0.03615522384643555,
                -0.8682205677032471
            ],
            "type" : "VEC3"
        },
        {
            "bufferView" : 1,
            "componentType" : 5126,
            "count" : 158,
            "type" : "VEC3"
        },
        {
            "bufferView" : 2,
            "componentType" : 5126,
            "count" : 158,
            "type" : "VEC2"
        },
        {
            "bufferView" : 3,
            "componentType" : 5123,
            "count" : 228,
            "type" : "SCALAR"
        },
        {
            "bufferView" : 4,
            "componentType" : 5126,
            "count" : 116,
            "max" : [
                1.209768295288086,
                0.03615522384643555,
                0.8682205677032471
            ],
            "min" : [
                -1.209768295288086,
                -0.03615522384643555,
                -0.8682205677032471
            ],
            "type" : "VEC3"
        },
        {
            "bufferView" : 5,
            "componentType" : 5126,
            "count" : 116,
            "type" : "VEC3"
        },
        {
            "bufferView" : 6,
            "componentType" : 5126,
            "count" : 116,
            "type" : "VEC2"
        },
        {
            "bufferView" : 7,
            "componentType" : 5123,
            "count" : 174,
            "type" : "SCALAR"
        },
        {
            "bufferView" : 8,
            "componentType" : 5126,
            "count" : 4,
            "max" : [
                1.1080853939056396,
                0.013184219598770142,
                0.7665376663208008
            ],
            "min" : [
                -1.1080853939056396,
                0.013184219598770142,
                -0.7665376663208008
            ],
            "type" : "VEC3"
        },
        {
            "bufferView" : 9,
            "componentType" : 5126,
            "count" : 4,
            "type" : "VEC3"
        },
        {
            "bufferView" : 10,
            "componentType" : 5126,
            "count" : 4,
            "type" : "VEC2"
        },
        {
            "bufferView" : 11,
            "componentType" : 5123,
            "count" : 6,
            "type" : "SCALAR"
        },
        {
            "bufferView" : 12,
            "componentType" : 5126,
            "count" : 16,
            "max" : [
                1.194464921951294,
                0.03615522384643555,
                0.8529171943664551
            ],
            "min" : [
                -1.194464921951294,
                0.03615522384643555,
                -0.8529171943664551
            ],
            "type" : "VEC3"
        },
        {
            "bufferView" : 13,
            "componentType" : 5126,
            "count" : 16,
            "type" : "VEC3"
        },
        {
            "bufferView" : 14,
            "componentType" : 5126,
            "count" : 16,
            "type" : "VEC2"
        },
        {
            "bufferView" : 15,
            "componentType" : 5123,
            "count" : 24,
            "type" : "SCALAR"
        },
        {
            "bufferView" : 16,
            "componentType" : 5126,
            "count" : 1512,
            "max" : [
                27.54796600341797,
                1.0000001192092896,
                9.124068260192871
            ],
            "min" : [
                -1.5996618270874023,
                -1,
                -0.9017795324325562
            ],
            "type" : "VEC3"
        },
        {
            "bufferView" : 17,
            "componentType" : 5126,
            "count" : 1512,
            "type" : "VEC3"
        },
        {
            "bufferView" : 18,
            "componentType" : 5126,
            "count" : 1512,
            "type" : "VEC2"
        },
        {
            "bufferView" : 19,
            "componentType" : 5123,
            "count" : 2268,
            "type" : "SCALAR"
        },
        {
            "bufferView" : 20,
            "componentType" : 5126,
            "count" : 9306,
            "max" : [
                5.6570000648498535,
                0.059999994933605194,
                0.23000000417232513
            ],
            "min" : [
                0,
                -0.059999994933605194,
                -0.6910000443458557
            ],
            "type" : "VEC3"
        },
        {
            "bufferView" : 21,
            "componentType" : 5126,
            "count" : 9306,
            "type" : "VEC3"
        },
        {
            "bufferView" : 22,
            "componentType" : 5126,
            "count" : 9306,
            "type" : "VEC2"
        },
        {
            "bufferView" : 23,
            "componentType" : 5123,
            "count" : 16812,
            "type" : "SCALAR"
        }
    ],
    "bufferViews" : [
        {
            "buffer" : 0,
            "byteLength" : 1896,
            "byteOffset" : 0
        },
        {
            "buffer" : 0,
            "byteLength" : 1896,
            "byteOffset" : 1896
        },
        {
            "buffer" : 0,
            "byteLength" : 1264,
            "byteOffset" : 3792
        },
        {
            "buffer" : 0,
            "byteLength" : 456,
            "byteOffset" : 5056
        },
        {
            "buffer" : 0,
            "byteLength" : 1392,
            "byteOffset" : 5512
        },
        {
            "buffer" : 0,
            "byteLength" : 1392,
            "byteOffset" : 6904
        },
        {
            "buffer" : 0,
            "byteLength" : 928,
            "byteOffset" : 8296
        },
        {
            "buffer" : 0,
            "byteLength" : 348,
            "byteOffset" : 9224
        },
        {
            "buffer" : 0,
            "byteLength" : 48,
            "byteOffset" : 9572
        },
        {
            "buffer" : 0,
            "byteLength" : 48,
            "byteOffset" : 9620
        },
        {
            "buffer" : 0,
            "byteLength" : 32,
            "byteOffset" : 9668
        },
        {
            "buffer" : 0,
            "byteLength" : 12,
            "byteOffset" : 9700
        },
        {
            "buffer" : 0,
            "byteLength" : 192,
            "byteOffset" : 9712
        },
        {
            "buffer" : 0,
            "byteLength" : 192,
            "byteOffset" : 9904
        },
        {
            "buffer" : 0,
            "byteLength" : 128,
            "byteOffset" : 10096
        },
        {
            "buffer" : 0,
            "byteLength" : 48,
            "byteOffset" : 10224
        },
        {
            "buffer" : 0,
            "byteLength" : 18144,
            "byteOffset" : 10272
        },
        {
            "buffer" : 0,
            "byteLength" : 18144,
            "byteOffset" : 28416
        },
        {
            "buffer" : 0,
            "byteLength" : 12096,
            "byteOffset" : 46560
        },
        {
            "buffer" : 0,
            "byteLength" : 4536,
            "byteOffset" : 58656
        },
        {
            "buffer" : 0,
            "byteLength" : 111672,
            "byteOffset" : 63192
        },
        {
            "buffer" : 0,
            "byteLength" : 111672,
            "byteOffset" : 174864
        },
        {
            "buffer" : 0,
            "byteLength" : 74448,
            "byteOffset" : 286536
        },
        {
            "buffer" : 0,
            "byteLength" : 33624,
            "byteOffset" : 360984
        }
    ],
    "buffers" : [
        {
            "byteLength" : 394608,
            "uri" : "data:application/octet-stream;base64,"
        }
    ]
}
