{
    "asset" : {
        "generator" : "Khronos glTF Blender I/O v3.2.40",
        "version" : "2.0"
    },
    "scene" : 0,
    "scenes" : [
        {
            "name" : "Scene",
            "nodes" : [
                0,
                1,
                2,
                3,
                4,
                5
            ]
        }
    ],
    "nodes" : [
        {
            "mesh" : 0,
            "name" : "Plane",
            "scale" : [
                0.6579990386962891,
                0.6579990386962891,
                0.6579990386962891
            ],
            "translation" : [
                0,
                -1.6214110851287842,
                0
            ]
        },
        {
            "mesh" : 1,
            "name" : "Circle",
            "scale" : [
                0.4452202022075653,
                0.4452202022075653,
                0.4452202022075653
            ],
            "translation" : [
                0,
                -0.8319078683853149,
                0
            ]
        },
        {
            "mesh" : 2,
            "name" : "Sphere",
            "scale" : [
                -0.02379719167947769,
                -0.02379719167947769,
                -0.02379719167947769
            ],
            "translation" : [
                0.37339797616004944,
                -0.9631125926971436,
                0.5541687607765198
            ]
        },
        {
            "mesh" : 3,
            "name" : "Sphere.001",
            "scale" : [
                -0.02379719167947769,
                -0.02379719167947769,
                -0.02379719167947769
            ],
            "translation" : [
                -0.37642040848731995,
                -0.9631125926971436,
                0.5541687607765198
            ]
        },
        {
            "mesh" : 4,
            "name" : "Sphere.003",
            "scale" : [
                -0.02379719167947769,
                -0.02379719167947769,
                -0.02379719167947769
            ],
            "translation" : [
                0.4341783821582794,
                -1.367661952972412,
                0.6006819009780884
            ]
        },
        {
            "mesh" : 5,
            "name" : "Sphere.002",
            "scale" : [
                -0.02379719167947769,
                -0.02379719167947769,
                -0.02379719167947769
            ],
            "translation" : [
                -0.4324505925178528,
                -1.367661952972412,
                0.6006819009780884
            ]
        }
    ],
    "materials" : [
        {
            "doubleSided" : true,
            "name" : "Material.002",
            "pbrMetallicRoughness" : {
                "baseColorFactor" : [
                    0.17144112288951874,
                    0.07618533074855804,
                    0.02955685928463936,
                    1
                ],
                "metallicFactor" : 0,
                "roughnessFactor" : 0.5
            }
        },
        {
            "doubleSided" : true,
            "name" : "Material.001",
            "pbrMetallicRoughness" : {
                "baseColorFactor" : [
                    0.8000000715255737,
                    0.526814877986908,
                    0.16189569234848022,
                    1
                ],
                "roughnessFactor" : 0.5
            }
        }
    ],
    "meshes" : [
        {
            "name" : "Plane",
            "primitives" : [
                {
                    "attributes" : {
                        "POSITION" : 0,
                        "NORMAL" : 1,
                        "TEXCOORD_0" : 2
                    },
                    "indices" : 3,
                    "material" : 0
                },
                {
                    "attributes" : {
                        "POSITION" : 4,
                        "NORMAL" : 5,
                        "TEXCOORD_0" : 6
                    },
                    "indices" : 7,
                    "material" : 1
                }
            ]
        },
        {
            "name" : "Circle",
            "primitives" : [
                {
                    "attributes" : {
                        "POSITION" : 8,
                        "NORMAL" : 9,
                        "TEXCOORD_0" : 10
                    },
                    "indices" : 11,
                    "material" : 1
                }
            ]
        },
        {
            "name" : "Sphere",
            "primitives" : [
                {
                    "attributes" : {
                        "POSITION" : 12,
                        "NORMAL" : 13,
                        "TEXCOORD_0" : 14
                    },
                    "indices" : 15,
                    "material" : 1
                }
            ]
        },
        {
            "name" : "Sphere.001",
            "primitives" : [
                {
                    "attributes" : {
                        "POSITION" : 16,
                        "NORMAL" : 17,
                        "TEXCOORD_0" : 18
                    },
                    "indices" : 15,
                    "material" : 1
                }
            ]
        },
        {
            "name" : "Sphere.003",
            "primitives" : [
                {
                    "attributes" : {
                        "POSITION" : 19,
                        "NORMAL" : 20,
                        "TEXCOORD_0" : 21
                    },
                    "indices" : 15,
                    "material" : 1
                }
            ]
        },
        {
            "name" : "Sphere.004",
            "primitives" : [
                {
                    "attributes" : {
                        "POSITION" : 22,
                        "NORMAL" : 23,
                        "TEXCOORD_0" : 24
                    },
                    "indices" : 15,
                    "material" : 1
                }
            ]
        }
    ],
    "accessors" : [
        {
            "bufferView" : 0,
            "componentType" : 5126,
            "count" : 68,
            "max" : [
                1,
                1.1977572441101074,
                1
            ],
            "min" : [
                -1,
                0,
                -1
            ],
            "type" : "VEC3"
        },
        {
            "bufferView" : 1,
            "componentType" : 5126,
            "count" : 68,
            "type" : "VEC3"
        },
        {
            "bufferView" : 2,
            "componentType" : 5126,
            "count" : 68,
            "type" : "VEC2"
        },
        {
            "bufferView" : 3,
            "componentType" : 5123,
            "count" : 102,
            "type" : "SCALAR"
        },
        {
            "bufferView" : 4,
            "componentType" : 5126,
            "count" : 20,
            "max" : [
                0.7426357865333557,
                1.0886778831481934,
                0.9230047464370728
            ],
            "min" : [
                -0.7426357865333557,
                0.3128494620323181,
                0.7643643021583557
            ],
            "type" : "VEC3"
        },
        {
            "bufferView" : 5,
            "componentType" : 5126,
            "count" : 20,
            "type" : "VEC3"
        },
        {
            "bufferView" : 6,
            "componentType" : 5126,
            "count" : 20,
            "type" : "VEC2"
        },
        {
            "bufferView" : 7,
            "componentType" : 5123,
            "count" : 30,
            "type" : "SCALAR"
        },
        {
            "bufferView" : 8,
            "componentType" : 5126,
            "count" : 14592,
            "max" : [
                1.705871820449829,
                5.839931964874268,
                1.705871820449829
            ],
            "min" : [
                -1.705871820449829,
                -0.0007246012100949883,
                -1.705871820449829
            ],
            "type" : "VEC3"
        },
        {
            "bufferView" : 9,
            "componentType" : 5126,
            "count" : 14592,
            "type" : "VEC3"
        },
        {
            "bufferView" : 10,
            "componentType" : 5126,
            "count" : 14592,
            "type" : "VEC2"
        },
        {
            "bufferView" : 11,
            "componentType" : 5123,
            "count" : 87552,
            "type" : "SCALAR"
        },
        {
            "bufferView" : 12,
            "componentType" : 5126,
            "count" : 1984,
            "max" : [
                0.9999997019767761,
                1,
                0.9999994039535522
            ],
            "min" : [
                -0.9999990463256836,
                -1,
                -0.9999987483024597
            ],
            "type" : "VEC3"
        },
        {
            "bufferView" : 13,
            "componentType" : 5126,
            "count" : 1984,
            "type" : "VEC3"
        },
        {
            "bufferView" : 14,
            "componentType" : 5126,
            "count" : 1984,
            "type" : "VEC2"
        },
        {
            "bufferView" : 15,
            "componentType" : 5123,
            "count" : 2880,
            "type" : "SCALAR"
        },
        {
            "bufferView" : 16,
            "componentType" : 5126,
            "count" : 1984,
            "max" : [
                0.9999997019767761,
                1,
                0.9999994039535522
            ],
            "min" : [
                -0.9999990463256836,
                -1,
                -0.9999987483024597
            ],
            "type" : "VEC3"
        },
        {
            "bufferView" : 17,
            "componentType" : 5126,
            "count" : 1984,
            "type" : "VEC3"
        },
        {
            "bufferView" : 18,
            "componentType" : 5126,
            "count" : 1984,
            "type" : "VEC2"
        },
        {
            "bufferView" : 19,
            "componentType" : 5126,
            "count" : 1984,
            "max" : [
                0.9999997019767761,
                1,
                0.9999994039535522
            ],
            "min" : [
                -0.9999990463256836,
                -1,
                -0.9999987483024597
            ],
            "type" : "VEC3"
        },
        {
            "bufferView" : 20,
            "componentType" : 5126,
            "count" : 1984,
            "type" : "VEC3"
        },
        {
            "bufferView" : 21,
            "componentType" : 5126,
            "count" : 1984,
            "type" : "VEC2"
        },
        {
            "bufferView" : 22,
            "componentType" : 5126,
            "count" : 1984,
            "max" : [
                0.9999997019767761,
                1,
                0.9999994039535522
            ],
            "min" : [
                -0.9999990463256836,
                -1,
                -0.9999987483024597
            ],
            "type" : "VEC3"
        },
        {
            "bufferView" : 23,
            "componentType" : 5126,
            "count" : 1984,
            "type" : "VEC3"
        },
        {
            "bufferView" : 24,
            "componentType" : 5126,
            "count" : 1984,
            "type" : "VEC2"
        }
    ],
    "bufferViews" : [
        {
            "buffer" : 0,
            "byteLength" : 816,
            "byteOffset" : 0
        },
        {
            "buffer" : 0,
            "byteLength" : 816,
            "byteOffset" : 816
        },
        {
            "buffer" : 0,
            "byteLength" : 544,
            "byteOffset" : 1632
        },
        {
            "buffer" : 0,
            "byteLength" : 204,
            "byteOffset" : 2176
        },
        {
            "buffer" : 0,
            "byteLength" : 240,
            "byteOffset" : 2380
        },
        {
            "buffer" : 0,
            "byteLength" : 240,
            "byteOffset" : 2620
        },
        {
            "buffer" : 0,
            "byteLength" : 160,
            "byteOffset" : 2860
        },
        {
            "buffer" : 0,
            "byteLength" : 60,
            "byteOffset" : 3020
        },
        {
            "buffer" : 0,
            "byteLength" : 175104,
            "byteOffset" : 3080
        },
        {
            "buffer" : 0,
            "byteLength" : 175104,
            "byteOffset" : 178184
        },
        {
            "buffer" : 0,
            "byteLength" : 116736,
            "byteOffset" : 353288
        },
        {
            "buffer" : 0,
            "byteLength" : 175104,
            "byteOffset" : 470024
        },
        {
            "buffer" : 0,
            "byteLength" : 23808,
            "byteOffset" : 645128
        },
        {
            "buffer" : 0,
            "byteLength" : 23808,
            "byteOffset" : 668936
        },
        {
            "buffer" : 0,
            "byteLength" : 15872,
            "byteOffset" : 692744
        },
        {
            "buffer" : 0,
            "byteLength" : 5760,
            "byteOffset" : 708616
        },
        {
            "buffer" : 0,
            "byteLength" : 23808,
            "byteOffset" : 714376
        },
        {
            "buffer" : 0,
            "byteLength" : 23808,
            "byteOffset" : 738184
        },
        {
            "buffer" : 0,
            "byteLength" : 15872,
            "byteOffset" : 761992
        },
        {
            "buffer" : 0,
            "byteLength" : 23808,
            "byteOffset" : 777864
        },
        {
            "buffer" : 0,
            "byteLength" : 23808,
            "byteOffset" : 801672
        },
        {
            "buffer" : 0,
            "byteLength" : 15872,
            "byteOffset" : 825480
        },
        {
            "buffer" : 0,
            "byteLength" : 23808,
            "byteOffset" : 841352
        },
        {
            "buffer" : 0,
            "byteLength" : 23808,
            "byteOffset" : 865160
        },
        {
            "buffer" : 0,
            "byteLength" : 15872,
            "byteOffset" : 888968
        }
    ],
    "buffers" : [
        {
            "byteLength" : 904840,
            "uri" : "data:application/octet-stream;base64,"
        }
    ]
}
